<svg xmlns="http://www.w3.org/2000/svg" viewBox="0 0 800 1100" role="img" aria-labelledby="title desc">
  <title id="title">Illustration of Amazing Fantasy number 15 on museum display</title>
  <desc id="desc">A comic issue presented in a display sleeve with a dramatic cover image suggesting Spider-Man above a city street.</desc>
  <rect width="800" height="1100" fill="#ebe2cf"/>
  <rect x="0" y="0" width="800" height="330" fill="#d9d0bc"/>
  <ellipse cx="400" cy="928" rx="250" ry="46" fill="#cbbfa7" opacity="0.82"/>
  <rect x="210" y="165" width="380" height="650" rx="14" fill="#f8f4ea" stroke="#111" stroke-width="10"/>
  <rect x="230" y="185" width="340" height="610" rx="10" fill="#fffdf7" stroke="#b6ab95" stroke-width="4"/>
  <rect x="240" y="205" width="320" height="90" fill="#f0c13a"/>
  <text x="400" y="258" text-anchor="middle" font-family="Arial, Helvetica, sans-serif" font-size="34" font-weight="900" letter-spacing="0.5" fill="#111">AMAZING FANTASY</text>
  <text x="400" y="328" text-anchor="middle" font-family="Arial, Helvetica, sans-serif" font-size="22" font-weight="700" fill="#111">Issue #15 · 1962</text>
  <rect x="256" y="356" width="288" height="334" fill="#d7e4f4" stroke="#111" stroke-width="6"/>
  <rect x="268" y="546" width="264" height="132" fill="#3d4d60"/>
  <rect x="292" y="510" width="26" height="170" fill="#54677c"/>
  <rect x="340" y="470" width="26" height="210" fill="#54677c"/>
  <rect x="390" y="495" width="32" height="185" fill="#54677c"/>
  <rect x="448" y="452" width="24" height="228" fill="#54677c"/>
  <path d="M390 400 C408 446 430 474 466 502 C451 511 429 513 408 506 C413 530 405 556 392 573 C385 551 372 529 350 514 C361 499 381 486 394 480 C376 461 373 429 390 400 Z" fill="#c4332c" stroke="#111" stroke-width="5"/>
  <line x1="392" y1="440" x2="352" y2="394" stroke="#111" stroke-width="4"/>
  <line x1="394" y1="448" x2="318" y2="422" stroke="#111" stroke-width="4"/>
  <line x1="396" y1="456" x2="471" y2="400" stroke="#111" stroke-width="4"/>
  <rect x="286" y="856" width="228" height="34" fill="#5a5246" stroke="#111" stroke-width="6"/>
  <rect x="330" y="816" width="140" height="42" fill="#796d5f" stroke="#111" stroke-width="6"/>
  <rect x="140" y="918" width="520" height="110" rx="10" fill="#fffdf7" stroke="#111" stroke-width="8"/>
  <text x="400" y="962" text-anchor="middle" font-family="Arial, Helvetica, sans-serif" font-size="34" font-weight="800" fill="#111">Amazing Fantasy #15</text>
  <text x="400" y="994" text-anchor="middle" font-family="Arial, Helvetica, sans-serif" font-size="20" fill="#333">
    <tspan x="400" dy="0">Spider-Man debut</tspan>
    <tspan x="400" dy="24">Displayed as a breakthrough issue in archival support</tspan>
  </text>
</svg>
