<svg xmlns="http://www.w3.org/2000/svg" viewBox="0 0 600 760" role="img" aria-labelledby="title desc">
  <title id="title">Portrait card for Chris Claremont</title>
  <desc id="desc">A framed museum-style portrait illustration of Chris Claremont.</desc>
  <rect width="600" height="760" fill="#ece3d1"/>
  <rect x="60" y="54" width="480" height="560" rx="12" fill="#f8f4ea" stroke="#111" stroke-width="10"/>
  <rect x="95" y="90" width="410" height="490" fill="#dad4c8"/>
  <ellipse cx="300" cy="258" rx="108" ry="132" fill="#d4ae84"/>
  <path d="M188 228 C196 147 243 118 300 118 C356 118 405 148 412 228 C388 184 351 164 300 164 C248 164 211 184 188 228 Z" fill="#4c392f"/>
  <ellipse cx="264" cy="252" rx="10" ry="13" fill="#111"/>
  <ellipse cx="336" cy="252" rx="10" ry="13" fill="#111"/>
  <path d="M266 304 C287 320 313 320 334 304" fill="none" stroke="#704739" stroke-width="6" stroke-linecap="round"/>
  <rect x="214" y="392" width="172" height="150" rx="18" fill="#56406a"/>
  <polygon points="300,394 270,460 330,460" fill="#f0e3d0"/>
  <rect x="132" y="636" width="336" height="74" rx="10" fill="#fffdf7" stroke="#111" stroke-width="8"/>
  <text x="300" y="680" text-anchor="middle" font-family="Arial, Helvetica, sans-serif" font-size="28" font-weight="800" fill="#111">Chris Claremont</text>
  <text x="300" y="706" text-anchor="middle" font-family="Arial, Helvetica, sans-serif" font-size="18" fill="#333">Writer · long-form saga architect</text>
</svg>