<svg xmlns="http://www.w3.org/2000/svg" viewBox="0 0 800 1100" role="img" aria-labelledby="title desc">
  <title id="title">Illustration of the Infinity Gauntlet on museum pedestal</title>
  <desc id="desc">A dramatic gauntlet displayed under spotlights on a pedestal with labeled Infinity stones.</desc>
  <rect width="800" height="1100" fill="#141414"/>
  <rect x="70" y="70" width="660" height="960" rx="18" fill="#f6f1e7" stroke="#111" stroke-width="12"/>
  <ellipse cx="250" cy="130" rx="120" ry="70" fill="#fff9d1" opacity="0.4"/>
  <ellipse cx="550" cy="130" rx="120" ry="70" fill="#fff9d1" opacity="0.4"/>
  <rect x="155" y="840" width="490" height="96" rx="14" fill="#3b3328" stroke="#111" stroke-width="8"/>
  <rect x="235" y="760" width="330" height="90" rx="10" fill="#5d5245" stroke="#111" stroke-width="8"/>
  <path d="M321 705 C299 632 300 542 314 462 C326 394 355 345 402 331 C443 319 475 350 484 401 C492 447 491 525 487 600 C483 668 472 723 446 762 L379 762 C352 748 334 734 321 705 Z" fill="#d7a92e" stroke="#111" stroke-width="10"/>
  <path d="M352 332 L343 250 C340 223 355 200 378 193 C402 186 424 201 429 226 L443 320" fill="#d7a92e" stroke="#111" stroke-width="10"/>
  <path d="M396 328 L400 236 C401 212 419 194 442 194 C465 194 483 213 482 238 L476 336" fill="#d7a92e" stroke="#111" stroke-width="10"/>
  <path d="M448 347 L468 263 C474 239 498 224 522 230 C546 236 560 260 553 286 L525 370" fill="#d7a92e" stroke="#111" stroke-width="10"/>
  <path d="M316 357 L286 278 C278 256 290 232 311 224 C334 216 357 227 366 249 L394 327" fill="#d7a92e" stroke="#111" stroke-width="10"/>
  <circle cx="362" cy="264" r="17" fill="#db3e34" stroke="#111" stroke-width="5"/>
  <circle cx="442" cy="241" r="17" fill="#2364d7" stroke="#111" stroke-width="5"/>
  <circle cx="519" cy="282" r="17" fill="#52b947" stroke="#111" stroke-width="5"/>
  <circle cx="356" cy="431" r="19" fill="#ff7a00" stroke="#111" stroke-width="5"/>
  <circle cx="449" cy="429" r="19" fill="#7b4bd1" stroke="#111" stroke-width="5"/>
  <circle cx="404" cy="533" r="22" fill="#f4f1e5" stroke="#111" stroke-width="5"/>
  <rect x="140" y="930" width="520" height="82" rx="10" fill="#fffdf7" stroke="#111" stroke-width="8"/>
  <text x="400" y="978" text-anchor="middle" font-family="Arial, Helvetica, sans-serif" font-size="32" font-weight="800" fill="#111">Infinity Gauntlet · Event Object · 1991</text>
</svg>
