<svg xmlns="http://www.w3.org/2000/svg" viewBox="0 0 600 760" role="img" aria-labelledby="title desc">
  <title id="title">Portrait card for Jack Kirby</title>
  <desc id="desc">A framed museum-style portrait illustration of Jack Kirby.</desc>
  <rect width="600" height="760" fill="#ece3d1"/>
  <rect x="60" y="54" width="480" height="560" rx="12" fill="#f8f4ea" stroke="#111" stroke-width="10"/>
  <rect x="95" y="90" width="410" height="490" fill="#d9d3c8"/>
  <ellipse cx="300" cy="252" rx="110" ry="134" fill="#d4ae84"/>
  <path d="M191 214 C193 147 239 118 300 118 C360 118 408 149 409 220 C392 190 353 169 300 169 C246 169 208 191 191 214 Z" fill="#3b332d"/>
  <rect x="222" y="318" width="156" height="20" rx="8" fill="#111"/>
  <ellipse cx="262" cy="252" rx="10" ry="13" fill="#111"/>
  <ellipse cx="338" cy="252" rx="10" ry="13" fill="#111"/>
  <path d="M270 322 C290 334 312 334 330 322" fill="none" stroke="#6f4738" stroke-width="6" stroke-linecap="round"/>
  <rect x="214" y="392" width="172" height="150" rx="18" fill="#8a4f2d"/>
  <polygon points="300,394 270,460 330,460" fill="#f0e3d0"/>
  <rect x="132" y="636" width="336" height="74" rx="10" fill="#fffdf7" stroke="#111" stroke-width="8"/>
  <text x="300" y="680" text-anchor="middle" font-family="Arial, Helvetica, sans-serif" font-size="30" font-weight="800" fill="#111">Jack Kirby</text>
  <text x="300" y="706" text-anchor="middle" font-family="Arial, Helvetica, sans-serif" font-size="18" fill="#333">Artist and co-architect</text>
</svg>