<svg xmlns="http://www.w3.org/2000/svg" viewBox="0 0 600 760" role="img" aria-labelledby="title desc">
  <title id="title">Portrait card for Kevin Feige</title>
  <desc id="desc">A framed museum-style portrait illustration of Kevin Feige wearing a cap.</desc>
  <rect width="600" height="760" fill="#ece3d1"/>
  <rect x="60" y="54" width="480" height="560" rx="12" fill="#f8f4ea" stroke="#111" stroke-width="10"/>
  <rect x="95" y="90" width="410" height="490" fill="#d9d3c8"/>
  <ellipse cx="300" cy="262" rx="108" ry="132" fill="#d5af86"/>
  <path d="M194 206 C208 149 247 122 300 122 C352 122 392 149 406 206 L372 206 C352 184 329 176 300 176 C270 176 247 184 228 206 Z" fill="#1d1d1d"/>
  <rect x="208" y="186" width="184" height="36" rx="18" fill="#1d1d1d"/>
  <ellipse cx="264" cy="254" rx="10" ry="13" fill="#111"/>
  <ellipse cx="336" cy="254" rx="10" ry="13" fill="#111"/>
  <path d="M274 320 C291 332 309 332 326 320" fill="none" stroke="#704739" stroke-width="6" stroke-linecap="round"/>
  <rect x="214" y="392" width="172" height="150" rx="18" fill="#25394d"/>
  <polygon points="300,394 270,460 330,460" fill="#f0e3d0"/>
  <rect x="132" y="636" width="336" height="74" rx="10" fill="#fffdf7" stroke="#111" stroke-width="8"/>
  <text x="300" y="680" text-anchor="middle" font-family="Arial, Helvetica, sans-serif" font-size="30" font-weight="800" fill="#111">Kevin Feige</text>
  <text x="300" y="706" text-anchor="middle" font-family="Arial, Helvetica, sans-serif" font-size="18" fill="#333">Studio architect · MCU</text>
</svg>