<svg xmlns="http://www.w3.org/2000/svg" viewBox="0 0 800 1100" role="img" aria-labelledby="title desc">
  <title id="title">Illustration of Marvel Comics number 1 on museum display</title>
  <desc id="desc">An archival comic issue in a protective sleeve on a museum stand, labeled Marvel Comics number 1.</desc>
  <rect width="800" height="1100" fill="#efe6d4"/>
  <rect x="0" y="0" width="800" height="360" fill="#ddd2bb"/>
  <ellipse cx="400" cy="910" rx="250" ry="48" fill="#cfc2a9" opacity="0.8"/>
  <rect x="210" y="165" width="380" height="650" rx="14" fill="#f9f5eb" stroke="#111" stroke-width="10"/>
  <rect x="230" y="185" width="340" height="610" rx="10" fill="#fffdf7" stroke="#b6ab95" stroke-width="4"/>
  <rect x="240" y="205" width="320" height="90" fill="#c91f17"/>
  <text x="400" y="262" text-anchor="middle" font-family="Arial, Helvetica, sans-serif" font-size="46" font-weight="900" letter-spacing="1" fill="#fff">MARVEL</text>
  <text x="400" y="328" text-anchor="middle" font-family="Arial, Helvetica, sans-serif" font-size="22" font-weight="700" fill="#111">COMICS No. 1 · 1939</text>
  <rect x="276" y="356" width="248" height="301" fill="#f3e0bb" stroke="#111" stroke-width="6"/>
  <rect x="296" y="395" width="90" height="210" rx="10" fill="#cc4b37"/>
  <path d="M330 415 C315 452 316 500 340 545 C352 566 352 592 338 605 C370 594 392 561 390 520 C389 481 368 444 330 415 Z" fill="#f7a531" stroke="#111" stroke-width="4"/>
  <path d="M430 592 C447 536 474 490 510 455 C488 453 468 463 450 482 C438 448 410 424 386 414 C410 458 413 515 401 560 C420 578 428 587 430 592 Z" fill="#2a6fd6" stroke="#111" stroke-width="4"/>
  <rect x="292" y="628" width="216" height="14" fill="#111" opacity="0.15"/>
  <rect x="280" y="842" width="240" height="36" fill="#5a5246" stroke="#111" stroke-width="6"/>
  <rect x="320" y="800" width="160" height="46" fill="#7b6f5f" stroke="#111" stroke-width="6"/>
  <rect x="140" y="918" width="520" height="110" rx="10" fill="#fffdf7" stroke="#111" stroke-width="8"/>
  <text x="400" y="962" text-anchor="middle" font-family="Arial, Helvetica, sans-serif" font-size="34" font-weight="800" fill="#111">Marvel Comics #1</text>
  <text x="400" y="994" text-anchor="middle" font-family="Arial, Helvetica, sans-serif" font-size="20" fill="#333">
    <tspan x="400" dy="0">Timely Comics · opening-case artifact</tspan>
    <tspan x="400" dy="24">Protective sleeve and mount</tspan>
  </text>
</svg>
