<svg xmlns="http://www.w3.org/2000/svg" viewBox="0 0 600 760" role="img" aria-labelledby="title desc">
  <title id="title">Portrait card for Stan Lee</title>
  <desc id="desc">A framed museum-style portrait illustration of Stan Lee with tinted glasses and a mustache.</desc>
  <rect width="600" height="760" fill="#ece3d1"/>
  <rect x="60" y="54" width="480" height="560" rx="12" fill="#f8f4ea" stroke="#111" stroke-width="10"/>
  <rect x="95" y="90" width="410" height="490" fill="#ddd7cb"/>
  <ellipse cx="300" cy="258" rx="110" ry="136" fill="#d7b188"/>
  <path d="M186 228 C194 147 244 116 300 116 C355 116 407 148 414 228 C392 180 352 160 300 160 C247 160 207 180 186 228 Z" fill="#5b5b5b"/>
  <rect x="225" y="236" width="54" height="34" rx="10" fill="#b98933" stroke="#111" stroke-width="4"/>
  <rect x="321" y="236" width="54" height="34" rx="10" fill="#b98933" stroke="#111" stroke-width="4"/>
  <line x1="279" y1="252" x2="321" y2="252" stroke="#111" stroke-width="4"/>
  <path d="M277 308 C292 319 309 319 324 308" fill="none" stroke="#704739" stroke-width="6" stroke-linecap="round"/>
  <path d="M266 287 C285 301 316 301 336 287" fill="none" stroke="#111" stroke-width="5" stroke-linecap="round"/>
  <rect x="214" y="392" width="172" height="150" rx="18" fill="#7e2020"/>
  <polygon points="300,394 270,460 330,460" fill="#f0e3d0"/>
  <rect x="132" y="636" width="336" height="74" rx="10" fill="#fffdf7" stroke="#111" stroke-width="8"/>
  <text x="300" y="680" text-anchor="middle" font-family="Arial, Helvetica, sans-serif" font-size="30" font-weight="800" fill="#111">Stan Lee</text>
  <text x="300" y="706" text-anchor="middle" font-family="Arial, Helvetica, sans-serif" font-size="18" fill="#333">Writer-editor and public voice</text>
</svg>