<svg xmlns="http://www.w3.org/2000/svg" viewBox="0 0 600 760" role="img" aria-labelledby="title desc">
  <title id="title">Portrait card for Steve Ditko</title>
  <desc id="desc">A framed museum-style portrait illustration of Steve Ditko.</desc>
  <rect width="600" height="760" fill="#ece3d1"/>
  <rect x="60" y="54" width="480" height="560" rx="12" fill="#f8f4ea" stroke="#111" stroke-width="10"/>
  <rect x="95" y="90" width="410" height="490" fill="#d8d2c6"/>
  <ellipse cx="300" cy="258" rx="108" ry="132" fill="#d3ad84"/>
  <path d="M196 214 C202 153 248 118 300 118 C351 118 398 151 404 214 C384 182 349 164 300 164 C250 164 216 181 196 214 Z" fill="#3b3029"/>
  <ellipse cx="264" cy="252" rx="10" ry="13" fill="#111"/>
  <ellipse cx="336" cy="252" rx="10" ry="13" fill="#111"/>
  <path d="M275 320 C291 331 308 331 325 320" fill="none" stroke="#704739" stroke-width="6" stroke-linecap="round"/>
  <rect x="214" y="392" width="172" height="150" rx="18" fill="#2f4d63"/>
  <polygon points="300,394 270,460 330,460" fill="#f0e3d0"/>
  <rect x="132" y="636" width="336" height="74" rx="10" fill="#fffdf7" stroke="#111" stroke-width="8"/>
  <text x="300" y="680" text-anchor="middle" font-family="Arial, Helvetica, sans-serif" font-size="30" font-weight="800" fill="#111">Steve Ditko</text>
  <text x="300" y="706" text-anchor="middle" font-family="Arial, Helvetica, sans-serif" font-size="18" fill="#333">Artist and storyteller</text>
</svg>